<svg width="202" height="202" viewBox="0 0 202 202" fill="none" xmlns="http://www.w3.org/2000/svg">
<rect width="202" height="202" rx="24" fill="white"/>
<path d="M79.9161 159.105C79.8849 161.422 79.1692 163.678 77.8592 165.589C76.5491 167.5 74.7031 168.981 72.5535 169.845C70.4039 170.71 68.0467 170.919 65.7783 170.448C63.5099 169.976 61.4316 168.844 59.8051 167.194C58.1785 165.544 57.0762 163.449 56.6368 161.175C56.1975 158.9 56.4407 156.546 57.3359 154.409C58.231 152.272 59.7382 150.447 61.6677 149.164C63.5972 147.882 65.863 147.198 68.18 147.2C69.7351 147.201 71.2745 147.511 72.7089 148.112C74.1433 148.713 75.4441 149.593 76.5359 150.7C77.6276 151.808 78.4886 153.121 79.0689 154.564C79.6491 156.007 79.9371 157.55 79.9161 159.105V159.105Z" fill="#084999"/>
<path d="M165.344 171C171.832 171 177.091 165.675 177.091 159.106C177.091 152.536 171.832 147.211 165.344 147.211C158.857 147.211 153.598 152.536 153.598 159.106C153.598 165.675 158.857 171 165.344 171Z" fill="#084999"/>
<path d="M67.4723 81.0086C67.4271 80.6302 67.462 80.2466 67.5749 79.8825C67.6877 79.5185 67.8759 79.1824 68.1273 78.8959C68.3766 78.6081 68.6848 78.3771 69.0311 78.2185C69.3773 78.06 69.7535 77.9776 70.1344 77.9769H101.984C102.457 77.9768 102.922 78.103 103.331 78.3425C103.739 78.5821 104.077 78.9262 104.308 79.3396C104.541 79.754 104.663 80.2215 104.663 80.697C104.663 81.1725 104.541 81.64 104.308 82.0544L87.9024 110.851C87.7335 111.161 87.505 111.434 87.23 111.655C86.955 111.876 86.639 112.04 86.3002 112.138C85.9614 112.236 85.6065 112.266 85.256 112.227C84.9055 112.187 84.5663 112.079 84.2579 111.907C84.1082 111.822 83.9668 111.723 83.8354 111.611C75.1202 104.109 69.3731 93.7385 67.6308 82.3713C67.5885 82.0122 67.5357 81.5368 67.4723 81.0086ZM119.002 122.851C111.18 123.592 103.298 122.342 96.0892 119.217C95.7376 119.066 95.422 118.842 95.1634 118.56C94.9048 118.277 94.7091 117.943 94.5892 117.58C94.4697 117.215 94.4277 116.829 94.4659 116.447C94.5041 116.065 94.6216 115.696 94.811 115.362L113.826 82.0544C114.057 81.6409 114.394 81.2965 114.802 81.0568C115.211 80.817 115.676 80.6906 116.15 80.6906C116.623 80.6906 117.088 80.817 117.497 81.0568C117.905 81.2965 118.243 81.6409 118.474 82.0544L136.844 114.295C137.028 114.613 137.145 114.966 137.188 115.331C137.231 115.697 137.198 116.067 137.092 116.42C136.986 116.772 136.809 117.099 136.572 117.38C136.335 117.661 136.043 117.891 135.713 118.055C130.488 120.676 124.821 122.303 119.002 122.851ZM151.231 105.654C150.066 107.072 148.821 108.423 147.502 109.699C147.217 109.987 146.87 110.205 146.487 110.337C146.104 110.469 145.696 110.511 145.295 110.46C144.891 110.401 144.505 110.251 144.168 110.02C143.831 109.79 143.552 109.485 143.351 109.129L127.917 82.0439C127.679 81.6312 127.554 81.163 127.554 80.6864C127.554 80.2099 127.679 79.7417 127.917 79.329C128.149 78.9157 128.486 78.5715 128.894 78.332C129.303 78.0924 129.768 77.9662 130.241 77.9663H159.175C159.558 77.9669 159.935 78.0492 160.283 78.2077C160.631 78.3662 160.942 78.5972 161.193 78.8853C161.44 79.1745 161.625 79.511 161.738 79.8743C161.851 80.2375 161.888 80.6199 161.848 80.9981C160.709 90.0545 157.028 98.6031 151.231 105.654Z" fill="#084999"/>
<path d="M171.322 77.9659C169.442 105.431 148.082 128.333 120.184 130.943C89.2006 133.837 61.6295 110.629 58.7773 79.1808C56.1892 50.7857 37.9246 32.2888 11.1353 31V50.7857C27.7096 52.0005 37.7451 62.6698 39.4141 80.9977C43.0374 120.854 76.2178 150.887 114.986 150.887C117.303 150.887 119.645 150.778 122.011 150.559C160.04 147.01 188.964 115.488 190.865 77.9343L171.322 77.9659Z" fill="#084999"/>
</svg>
